# xmcd CD database file
#
# Track frame offsets:
#	150
#	9225
#	20627
#	30225
#	45482
#	67637
#	80952
#	108987
#	121940
#	140322
#	157792
#	179582
#	201287
#	216900
#	230100
#	247357
#	277070
#	295540
#
# Disc length: 4113 seconds
#
# Revision: 0
# Processed by: cddbd v1.5PL3 Copyright (c) Steve Scherf et al.
# Submitted via: CDex 1.50
#
DISCID=fc100f12
DTITLE=Various Artist - Quip Magazine Sampler CD vol.14
DYEAR=2003
DGENRE=Rock
TTITLE0=FOOL and SCISSORS - アフターデイ
TTITLE1=ASIAN KUNG-FU GENERATION - 羅針盤
TTITLE2=ザ・ガールハント - 表通りそこまで
TTITLE3=BOWL - その向こうへ
TTITLE4=アナログフィッシュ - 夕暮れ
TTITLE5=カンパネルラ - 人間さん
TTITLE6=岩見十夢 - 自転車はもういらない
TTITLE7=空気公団 - 優しさ
TTITLE8=Maybelle - Maybe true, maybelie？
TTITLE9=残像カフェ - ナイトフライ
TTITLE10=ザ・カスタネッツ - Through
TTITLE11=FREEZER NOIZE - アウト
TTITLE12=ZARIGANI 5 - S.D.A
TTITLE13=ソフトタッチ - エンドマークタワー
TTITLE14=YOUNG TONGUE - 2-234+1
TTITLE15=サザンハリケーン - 悲しみの海
TTITLE16=DUSK - NEO ANTHEM
TTITLE17=HERMIT - OWL AND DEAD MAN
EXTD=YEAR: 2003
EXTT0=
EXTT1=
EXTT2=
EXTT3=
EXTT4=
EXTT5=
EXTT6=
EXTT7=
EXTT8=
EXTT9=
EXTT10=
EXTT11=
EXTT12=
EXTT13=
EXTT14=
EXTT15=
EXTT16=
EXTT17=
PLAYORDER=
